<svg xmlns="http://www.w3.org/2000/svg" xmlns:xlink="http://www.w3.org/1999/xlink" width="30" height="30" viewBox="0 0 30 30">
  <defs>
    <clipPath id="clip-InfoIcon">
      <rect width="30" height="30"/>
    </clipPath>
  </defs>
  <g id="InfoIcon" clip-path="url(#clip-InfoIcon)">
    <path id="Path_642" data-name="Path 642" d="M23.733-55.757A15.091,15.091,0,0,0,38.74-70.75,15.1,15.1,0,0,0,23.718-85.742,15.075,15.075,0,0,0,8.74-70.75,15.088,15.088,0,0,0,23.733-55.757Zm0-2.987A11.95,11.95,0,0,1,11.756-70.75,11.934,11.934,0,0,1,23.718-82.741,11.983,11.983,0,0,1,35.739-70.75,11.965,11.965,0,0,1,23.733-58.744Zm-.014-9.6a1.171,1.171,0,0,0,1.276-1.29v-6.974c.029-.855-.392-1.479-1.29-1.479s-1.319.623-1.29,1.479v6.974A1.2,1.2,0,0,0,23.718-68.343Zm0,4.814a1.639,1.639,0,0,0,1.711-1.609,1.628,1.628,0,0,0-1.711-1.595,1.637,1.637,0,0,0-1.711,1.595A1.657,1.657,0,0,0,23.718-63.529Z" transform="matrix(-1, 0, 0, -1, 38.74, -55.757)"/>
  </g>
</svg>
